<?xml version="1.0" encoding="UTF-8" standalone="no"?>
<svg
   xmlns:dc="http://purl.org/dc/elements/1.1/"
   xmlns:cc="http://creativecommons.org/ns#"
   xmlns:rdf="http://www.w3.org/1999/02/22-rdf-syntax-ns#"
   xmlns:svg="http://www.w3.org/2000/svg"
   xmlns="http://www.w3.org/2000/svg"
   xmlns:sodipodi="http://sodipodi.sourceforge.net/DTD/sodipodi-0.dtd"
   xmlns:inkscape="http://www.inkscape.org/namespaces/inkscape"
   version="1.1"
   x="0px"
   y="0px"
   viewBox="0 0 100 125"
   style="enable-background:new 0 0 100 100;"
   xml:space="preserve"
   id="svg2"
   inkscape:version="0.48.4 r9939"
   width="100%"
   height="100%"
   sodipodi:docname="cleaninsights.svg"><metadata
     id="metadata42"><rdf:RDF><cc:Work
         rdf:about=""><dc:format>image/svg+xml</dc:format><dc:type
           rdf:resource="http://purl.org/dc/dcmitype/StillImage" /><dc:title></dc:title></cc:Work></rdf:RDF></metadata><defs
     id="defs40" /><sodipodi:namedview
     pagecolor="#ffffff"
     bordercolor="#666666"
     borderopacity="1"
     objecttolerance="10"
     gridtolerance="10"
     guidetolerance="10"
     inkscape:pageopacity="0"
     inkscape:pageshadow="2"
     inkscape:window-width="1595"
     inkscape:window-height="971"
     id="namedview38"
     showgrid="false"
     inkscape:zoom="5.3400704"
     inkscape:cx="44.269863"
     inkscape:cy="60.008322"
     inkscape:window-x="0"
     inkscape:window-y="24"
     inkscape:window-maximized="0"
     inkscape:current-layer="svg2" /><g
     transform="matrix(1.0914542,0,0,1.0914542,-4.8205318,-1035.7058)"
     id="g3416"
     style="fill:#ccff99"
     inkscape:export-filename="/media/removable/nate128/dev/repos/piwik-sdk-android/art/cleaninsights.png"
     inkscape:export-xdpi="490.92001"
     inkscape:export-ydpi="490.92001"><path
       inkscape:connector-curvature="0"
       style="font-size:medium;font-style:normal;font-variant:normal;font-weight:normal;font-stretch:normal;text-indent:0;text-align:start;text-decoration:none;line-height:normal;letter-spacing:normal;word-spacing:normal;text-transform:none;direction:ltr;block-progression:tb;writing-mode:lr-tb;text-anchor:start;baseline-shift:baseline;color:#000000;fill:#ccff99;fill-opacity:1;stroke:none;stroke-width:1.19047618;marker:none;visibility:visible;display:inline;overflow:visible;enable-background:accumulate;font-family:Sans;-inkscape-font-specification:Sans"
       d="M 50,7 C 26.263601,7 7,26.26356 7,50 7,73.7364 26.263601,93 50,93 73.736399,93 93,73.7364 93,50 93,26.26358 73.736399,7 50,7 z M 44.40625,9.375 C 33.09035,15.93797 25.322428,31.57482 25.03125,49 l -16,0 C 9.51501,28.69272 24.721703,12.05765 44.40625,9.375 z m 11.1875,0 C 75.278297,12.057649 90.48499,28.692739 90.96875,49 l -16,0 C 74.677572,31.574843 66.90965,15.937967 55.59375,9.375 z M 49,9.40625 49,49 27.03125,49 C 27.354716,30.29419 36.74058,13.96805 49,9.40625 z m 2,0 C 63.25942,13.968051 72.645284,30.294162 72.96875,49 L 51,49 51,9.40625 z M 9.03125,51 l 16,0 c 0.291178,17.4252 8.0591,33.062 19.375,39.625 C 24.721703,87.9423 9.51501,71.3073 9.03125,51 z m 18,0 L 49,51 49,90.59375 C 36.74058,86.03195 27.354716,69.7058 27.03125,51 z M 51,51 72.96875,51 C 72.645284,69.7058 63.25942,86.03195 51,90.59375 L 51,51 z m 23.96875,0 16,0 C 90.48499,71.3072 75.278297,87.9423 55.59375,90.625 66.90965,84.062 74.677572,68.4251 74.96875,51 z"
       transform="translate(0,952.36218)"
       id="path3418" /></g><g
     id="g4"
     style="fill:#66ccff"
     transform="translate(0,8)"
     inkscape:export-filename="/media/removable/nate128/dev/repos/piwik-sdk-android/art/cleaninsights.png"
     inkscape:export-xdpi="490.92001"
     inkscape:export-ydpi="490.92001"><g
       id="g6"
       style="fill:#66ccff"><path
         d="M 53,32.3 75.3,7.7 50.7,29.9 c -1,-0.2 -2.2,0 -3,0.8 -1.2,1.2 -1.2,3.3 0,4.5 1.2,1.2 3.3,1.2 4.5,0 0.8,-0.8 1.1,-1.9 0.8,-2.9 z"
         id="path8"
         style="fill:#66ccff"
         inkscape:connector-curvature="0" /></g><g
       id="g10"
       style="fill:#66ccff"><path
         d="m 43,93.6 c 0,1.9 1.6,3.4 3.5,3.4 h 6.9 c 1.9,0 3.5,-1.6 3.5,-3.4 V 93.5 H 43 v 0.1 z"
         id="path12"
         style="fill:#66ccff"
         inkscape:connector-curvature="0" /><path
         d="M 73.8,14.5 70.7,18 c 3,4.2 4.7,9.1 4.7,14.3 0,6.6 -2.6,12.8 -7.4,17.5 -5.4,5.3 -8.8,12 -9.8,19.4 H 41.9 c -1,-7.4 -4.4,-14.1 -9.8,-19.4 -4.8,-4.7 -7.4,-10.9 -7.4,-17.5 0,-6.6 2.6,-12.8 7.4,-17.5 4.8,-4.7 11.1,-7.3 17.9,-7.3 5.4,0 10.6,1.7 14.9,4.7 l 3.5,-3 C 63.1,5.1 56.5,3 50,3 42.3,3 34.7,5.9 28.8,11.6 17.1,23 17.1,41.6 28.8,53 c 4.9,4.8 7.8,10.8 8.5,17.1 0.2,1.2 1.5,3.6 3.8,3.6 h 17.6 c 2.3,0 3.7,-2.4 3.8,-3.6 C 63.3,63.9 66.1,57.8 71,53 82,42.5 82.8,25.9 73.8,14.5 z"
         id="path14"
         style="fill:#66ccff"
         inkscape:connector-curvature="0" /></g><g
       id="g16"
       style="fill:#66ccff"><path
         d="m 39.9,82.5 c 7.4,0 12.6,0 20.1,0 3.4,0 3.4,-5.3 0,-5.3 -7.4,0 -12.6,0 -20.1,0 -3.4,0 -3.4,5.3 0,5.3 l 0,0 z"
         id="path18"
         style="fill:#66ccff"
         inkscape:connector-curvature="0" /></g><g
       id="g20"
       style="fill:#66ccff"><path
         d="m 39.9,90.6 c 7.4,0 12.6,0 20.1,0 3.4,0 3.4,-5.3 0,-5.3 -7.4,0 -12.6,0 -20.1,0 -3.4,0 -3.4,5.3 0,5.3 l 0,0 z"
         id="path22"
         style="fill:#66ccff"
         inkscape:connector-curvature="0" /></g><g
       id="g24"
       style="fill:#66ccff"><path
         d="M 32.1,33 C 32,32.5 32,31.9 32,31.3 c 0,-1.1 0.1,-2.1 0.3,-3.2 l -3.1,-1.2 c -0.4,2 -0.6,4 -0.4,6 h 3.3 z"
         id="path26"
         style="fill:#66ccff"
         inkscape:connector-curvature="0" /><path
         d="m 33.6,24.2 c 0.9,-1.9 2.1,-3.7 3.7,-5.2 0.2,-0.2 0.3,-0.3 0.5,-0.5 L 36,15.8 c -0.4,0.3 -0.7,0.6 -1.1,1 -2,2 -3.5,4.2 -4.5,6.6 l 3.2,0.8 z"
         id="path28"
         style="fill:#66ccff"
         inkscape:connector-curvature="0" /><path
         d="m 39.1,13.7 2,2.5 c 2,-1.1 4.3,-1.9 6.7,-2.1 L 48,10.9 c -3.1,0.2 -6.2,1.2 -8.9,2.8 z"
         id="path30"
         style="fill:#66ccff"
         inkscape:connector-curvature="0" /><path
         d="m 60.6,13.7 c -2.8,-1.6 -5.8,-2.5 -8.9,-2.8 l 0.2,3.2 c 2.4,0.3 4.6,1 6.7,2.1 l 2,-2.5 z"
         id="path32"
         style="fill:#66ccff"
         inkscape:connector-curvature="0" /></g></g><path
     style="fill:#66ccff;fill-opacity:1;stroke:none"
     d=""
     id="path3284"
     inkscape:connector-curvature="0"
     inkscape:export-filename="/media/removable/nate128/dev/repos/piwik-sdk-android/art/cleaninsights.png"
     inkscape:export-xdpi="490.92001"
     inkscape:export-ydpi="490.92001" /></svg>