<svg xmlns="http://www.w3.org/2000/svg" xmlns:xlink="http://www.w3.org/1999/xlink" version="1.1" x="0px" y="0px" viewBox="0 0 100 125" style="enable-background:new 0 0 100 100;" xml:space="preserve"><g><g><path d="M53,32.3L75.3,7.7L50.7,29.9c-1-0.2-2.2,0-3,0.8c-1.2,1.2-1.2,3.3,0,4.5s3.3,1.2,4.5,0C53,34.4,53.3,33.3,53,32.3z"/></g><g><path d="M43,93.6c0,1.9,1.6,3.4,3.5,3.4h6.9c1.9,0,3.5-1.6,3.5-3.4v-0.1H43V93.6z"/><path d="M73.8,14.5L70.7,18c3,4.2,4.7,9.1,4.7,14.3c0,6.6-2.6,12.8-7.4,17.5c-5.4,5.3-8.8,12-9.8,19.4H41.9    c-1-7.4-4.4-14.1-9.8-19.4c-4.8-4.7-7.4-10.9-7.4-17.5c0-6.6,2.6-12.8,7.4-17.5c4.8-4.7,11.1-7.3,17.9-7.3    c5.4,0,10.6,1.7,14.9,4.7l3.5-3C63.1,5.1,56.5,3,50,3c-7.7,0-15.3,2.9-21.2,8.6c-11.7,11.4-11.7,30,0,41.4    c4.9,4.8,7.8,10.8,8.5,17.1c0.2,1.2,1.5,3.6,3.8,3.6h17.6c2.3,0,3.7-2.4,3.8-3.6c0.8-6.2,3.6-12.3,8.5-17.1    C82,42.5,82.8,25.9,73.8,14.5z"/></g><g><path d="M39.9,82.5c7.4,0,12.6,0,20.1,0c3.4,0,3.4-5.3,0-5.3c-7.4,0-12.6,0-20.1,0C36.5,77.2,36.5,82.5,39.9,82.5L39.9,82.5z"/></g><g><path d="M39.9,90.6c7.4,0,12.6,0,20.1,0c3.4,0,3.4-5.3,0-5.3c-7.4,0-12.6,0-20.1,0C36.5,85.3,36.5,90.6,39.9,90.6L39.9,90.6z"/></g><g><path d="M32.1,33c-0.1-0.5-0.1-1.1-0.1-1.7c0-1.1,0.1-2.1,0.3-3.2l-3.1-1.2c-0.4,2-0.6,4-0.4,6H32.1z"/><path d="M33.6,24.2c0.9-1.9,2.1-3.7,3.7-5.2c0.2-0.2,0.3-0.3,0.5-0.5L36,15.8c-0.4,0.3-0.7,0.6-1.1,1c-2,2-3.5,4.2-4.5,6.6    L33.6,24.2z"/><path d="M39.1,13.7l2,2.5c2-1.1,4.3-1.9,6.7-2.1l0.2-3.2C44.9,11.1,41.8,12.1,39.1,13.7z"/><path d="M60.6,13.7c-2.8-1.6-5.8-2.5-8.9-2.8l0.2,3.2c2.4,0.3,4.6,1,6.7,2.1L60.6,13.7z"/></g></g><text x="0" y="115" fill="#000000" font-size="5px" font-weight="bold" font-family="'Helvetica Neue', Helvetica, Arial-Unicode, Arial, Sans-serif">Created by Mike Zuidgeest</text><text x="0" y="120" fill="#000000" font-size="5px" font-weight="bold" font-family="'Helvetica Neue', Helvetica, Arial-Unicode, Arial, Sans-serif">from the Noun Project</text></svg>